<svg width="236" height="236" viewBox="0 0 236 236" fill="none" xmlns="http://www.w3.org/2000/svg">
<g clip-path="url(#clip0_1_400)">
<g clip-path="url(#clip1_1_400)">
<rect width="235.55" height="381.19" fill="#F4EEE5"/>
<g clip-path="url(#clip2_1_400)">
<g clip-path="url(#clip3_1_400)">
<path d="M75.9917 10.3201C162.581 -12.8814 251.541 38.4798 274.743 125.069C297.945 211.659 246.584 300.618 159.994 323.82C134.467 330.661 108.766 331.028 84.55 325.895L80.5425 325.046L79.3464 328.962L66.159 372.152C63.6997 379.728 61.4698 384.202 58.1674 387.422C54.8705 390.637 50.0289 393.061 41.3399 395.389C25.8146 399.549 9.80434 390.304 5.64434 374.779L-38.7569 209.071C-61.9583 122.482 -10.5971 33.5216 75.9917 10.3201Z" stroke="url(#paint0_linear_1_400)" stroke-width="8.94287"/>
</g>
</g>
</g>
<path d="M117.77 97.1755C122.646 97.1755 126.603 101.132 126.603 106.008V111.897H108.937V106.008C108.937 101.132 112.894 97.1755 117.77 97.1755ZM105.993 106.008V111.897H104.521C100.454 111.897 97.16 115.191 97.16 119.258V133.979C97.16 138.046 100.454 141.34 104.521 141.34H131.019C135.086 141.34 138.38 138.046 138.38 133.979V119.258C138.38 115.191 135.086 111.897 131.019 111.897H129.547V106.008C129.547 99.5033 124.275 94.2312 117.77 94.2312C111.265 94.2312 105.993 99.5033 105.993 106.008ZM104.521 114.841H131.019C133.458 114.841 135.436 116.819 135.436 119.258V133.979C135.436 136.417 133.458 138.395 131.019 138.395H104.521C102.082 138.395 100.104 136.417 100.104 133.979V119.258C100.104 116.819 102.082 114.841 104.521 114.841ZM119.242 122.938C119.242 122.128 118.58 121.466 117.77 121.466C116.96 121.466 116.298 122.128 116.298 122.938V130.299C116.298 131.108 116.96 131.771 117.77 131.771C118.58 131.771 119.242 131.108 119.242 130.299V122.938Z" fill="#67748E"/>
</g>
<defs>
<linearGradient id="paint0_linear_1_400" x1="-4.95331" y1="381.216" x2="202.129" y2="23.4381" gradientUnits="userSpaceOnUse">
<stop stop-color="white"/>
<stop offset="0.4" stop-color="#FCFBF9"/>
<stop offset="0.9" stop-color="#F6F1EA"/>
<stop offset="1" stop-color="#F4EEE5"/>
</linearGradient>
<clipPath id="clip0_1_400">
<rect width="235.55" height="235.56" fill="white"/>
</clipPath>
<clipPath id="clip1_1_400">
<rect width="235.55" height="381.19" fill="white"/>
</clipPath>
<clipPath id="clip2_1_400">
<rect width="235.55" height="381.19" fill="white"/>
</clipPath>
<clipPath id="clip3_1_400">
<rect width="334.24" height="381.19" fill="white" transform="translate(-49.3449)"/>
</clipPath>
</defs>
</svg>
