<svg width="22" height="22" viewBox="0 0 22 22" fill="none" xmlns="http://www.w3.org/2000/svg">
<path d="M11 0C4.92339 0 0 4.92339 0 11C0 17.0766 4.92339 22 11 22C17.0766 22 22 17.0766 22 11C22 4.92339 17.0766 0 11 0ZM19.5694 6.74194H15.9101C15.5109 4.77258 14.8411 3.09597 13.994 1.90282C16.4335 2.71008 18.4383 4.47097 19.5694 6.74194ZM14.9032 11C14.9032 12.0157 14.8323 12.9605 14.7125 13.8387H7.2875C7.16774 12.9605 7.09677 12.0157 7.09677 11C7.09677 9.98427 7.16774 9.03952 7.2875 8.16129H14.7125C14.8323 9.03952 14.9032 9.98427 14.9032 11ZM11 1.41935C12.1931 1.41935 13.7234 3.3754 14.4641 6.74194H7.53589C8.27661 3.3754 9.80685 1.41935 11 1.41935ZM8.00605 1.90282C7.16331 3.09153 6.48911 4.76814 6.08992 6.74194H2.43064C3.56169 4.47097 5.56653 2.71008 8.00605 1.90282ZM1.41935 11C1.41935 10.0109 1.57016 9.05726 1.8496 8.16129H5.86371C5.74839 9.07056 5.67742 10.0153 5.67742 11C5.67742 11.9847 5.74395 12.9294 5.86371 13.8387H1.8496C1.57016 12.9427 1.41935 11.9891 1.41935 11ZM2.43064 15.2581H6.08992C6.48911 17.2274 7.15887 18.904 8.00605 20.0972C5.56653 19.2899 3.56169 17.529 2.43064 15.2581ZM11 20.5806C9.80685 20.5806 8.27661 18.6246 7.53589 15.2581H14.4641C13.7234 18.6246 12.1931 20.5806 11 20.5806ZM13.994 20.0972C14.8367 18.9085 15.5109 17.2319 15.9101 15.2581H19.5694C18.4383 17.529 16.4335 19.2899 13.994 20.0972ZM16.1363 13.8387C16.2516 12.9294 16.3226 11.9847 16.3226 11C16.3226 10.0153 16.256 9.07056 16.1363 8.16129H20.1504C20.4298 9.05726 20.5806 10.0109 20.5806 11C20.5806 11.9891 20.4298 12.9427 20.1504 13.8387H16.1363Z" fill="#676767"/>
</svg>
