<svg width="22" height="22" viewBox="0 0 22 22" fill="none" xmlns="http://www.w3.org/2000/svg">
<path d="M19.568 11C19.568 6.26919 15.7309 2.43208 11 2.43208C6.26914 2.43208 2.43203 6.26919 2.43203 11C2.43203 12.8133 2.99492 14.4891 3.95313 15.8727C4.16367 16.1778 4.23242 16.5688 4.12071 16.934L4.06055 17.0887L2.90899 19.568H11C15.7309 19.568 19.568 15.7309 19.568 11ZM20.9559 11C20.9559 16.5 16.5 20.9559 11 20.9559H2.62539C1.71446 20.9559 1.14297 19.9934 1.55117 19.1985H1.54688L2.7586 16.586C1.67578 14.9961 1.04414 13.0711 1.04414 11C1.04414 5.50005 5.5 1.04419 11 1.04419C16.5 1.04419 20.9559 5.50005 20.9559 11Z" fill="#676767"/>
</svg>
