<svg preserveAspectRatio="none" width="100%" height="100%" overflow="visible" style="display: block;" viewBox="0 0 12 12" fill="none" xmlns="http://www.w3.org/2000/svg">
<g id="Image">
<path id="Vector" d="M0 2.25C0 1.42266 0.672656 0.75 1.5 0.75H10.5C11.3273 0.75 12 1.42266 12 2.25V9.75C12 10.5773 11.3273 11.25 10.5 11.25H1.5C0.672656 11.25 0 10.5773 0 9.75V2.25ZM7.58906 4.74609C7.48359 4.59141 7.31016 4.5 7.125 4.5C6.93984 4.5 6.76406 4.59141 6.66094 4.74609L4.62187 7.73672L4.00078 6.96094C3.89297 6.82734 3.73125 6.75 3.5625 6.75C3.39375 6.75 3.22969 6.82734 3.12422 6.96094L1.62422 8.83594C1.48828 9.00469 1.4625 9.23672 1.55625 9.43125C1.65 9.62578 1.84688 9.75 2.0625 9.75H4.3125H5.0625H9.9375C10.1461 9.75 10.3383 9.63516 10.4344 9.45C10.5305 9.26484 10.5187 9.04219 10.4016 8.87109L7.58906 4.74609ZM2.625 4.5C2.92337 4.5 3.20952 4.38147 3.4205 4.1705C3.63147 3.95952 3.75 3.67337 3.75 3.375C3.75 3.07663 3.63147 2.79048 3.4205 2.5795C3.20952 2.36853 2.92337 2.25 2.625 2.25C2.32663 2.25 2.04048 2.36853 1.8295 2.5795C1.61853 2.79048 1.5 3.07663 1.5 3.375C1.5 3.67337 1.61853 3.95952 1.8295 4.1705C2.04048 4.38147 2.32663 4.5 2.625 4.5Z" fill="var(--fill-0, #6C757D)"/>
</g>
</svg>
