<svg width="22" height="22" viewBox="0 0 22 22" fill="none" xmlns="http://www.w3.org/2000/svg">
<path d="M16.9727 0H6.13165C4.64064 0 3.42462 1.2332 3.42462 2.75V21.2738C3.42462 21.523 3.55782 21.7551 3.77697 21.8754C3.99611 21.9957 4.25822 21.9871 4.46447 21.8539L11.5543 17.2777L18.6442 21.8539C18.7559 21.9656 18.8805 22 19.0094 22C19.1211 22 19.2328 21.9699 19.3359 21.9141C19.5508 21.7938 19.6883 21.5617 19.6883 21.2738V2.75C19.6883 1.2332 18.4723 0 16.977 0H16.9727ZM18.3262 20.0621L11.9195 15.9199C11.7734 15.8469 11.6832 15.8125 11.5543 15.8125C11.4254 15.8125 11.3008 15.8469 11.1891 15.9199L4.77814 20.0621V2.75C4.77814 1.99375 5.384 1.375 6.13165 1.375H16.9727C17.7203 1.375 18.3262 1.99375 18.3262 2.75V20.0621Z" fill="#676767"/>
</svg>
