<svg width="14" height="12" viewBox="0 0 14 12" fill="none" xmlns="http://www.w3.org/2000/svg">
<path d="M6.67188 2.40111L6.34375 2.03197L6.22891 1.90346C5.51797 1.10502 4.44336 0.733143 3.39062 0.924549C1.9332 1.18978 0.875 2.45853 0.875 3.94057V4.03627C0.875 4.91947 1.24141 5.76166 1.88945 6.36322L6.91797 11.0472C6.93984 11.0663 6.96992 11.08 7 11.08C7.03008 11.08 7.06016 11.0691 7.08203 11.0472L12.1133 6.36322C12.7586 5.76166 13.125 4.91947 13.125 4.03627V3.94057C13.125 2.45853 12.0668 1.18978 10.6094 0.924549C9.55664 0.733143 8.48203 1.10502 7.77109 1.90346L7.65625 2.03197L7.32812 2.40111C7.24609 2.49408 7.12578 2.54877 7 2.54877C6.87422 2.54877 6.75664 2.49408 6.67188 2.40111ZM7.62617 0.839784C8.50391 0.153456 9.64414 -0.139122 10.7652 0.0632213C12.6383 0.405018 14 2.03744 14 3.94057V4.03627C14 5.02064 13.6418 5.96674 12.9992 6.70228C12.9062 6.80619 12.8105 6.90736 12.7066 7.00307L7.67539 11.687C7.65352 11.7089 7.62891 11.7281 7.6043 11.7472C7.43203 11.8812 7.21875 11.9523 7 11.9523C6.74844 11.9523 6.50781 11.8566 6.32188 11.687L1.29062 7.0058C1.18672 6.9101 1.09102 6.80892 0.998047 6.70502C0.358203 5.96674 0 5.02064 0 4.03627V3.94057C0 2.03744 1.36172 0.405018 3.23477 0.0632213C4.35313 -0.139122 5.49336 0.150721 6.37109 0.839784C6.5543 0.984706 6.72656 1.1433 6.88242 1.32103L6.99727 1.44955L7.11211 1.32103C7.22695 1.19252 7.34727 1.07221 7.47578 0.962831C7.525 0.921815 7.57422 0.880799 7.62344 0.839784H7.62617Z" fill="#333333"/>
</svg>
