<svg width="17" height="15" viewBox="0 0 17 15" fill="none" xmlns="http://www.w3.org/2000/svg">
<path d="M8.10156 2.91564L7.70312 2.46739L7.56367 2.31134C6.70039 1.34181 5.39551 0.890245 4.11719 1.12267C2.34746 1.44474 1.0625 2.98536 1.0625 4.78497V4.90118C1.0625 5.97364 1.50742 6.9963 2.29434 7.72677L8.40039 13.4145C8.42695 13.4377 8.46348 13.4543 8.5 13.4543C8.53652 13.4543 8.57305 13.441 8.59961 13.4145L14.709 7.72677C15.4926 6.9963 15.9375 5.97364 15.9375 4.90118V4.78497C15.9375 2.98536 14.6525 1.44474 12.8828 1.12267C11.6045 0.890245 10.2996 1.34181 9.43633 2.31134L9.29688 2.46739L8.89844 2.91564C8.79883 3.02853 8.65273 3.09493 8.5 3.09493C8.34727 3.09493 8.20449 3.02853 8.10156 2.91564ZM9.26035 1.01974C10.3262 0.186339 11.7107 -0.168934 13.0721 0.0767687C15.3465 0.491808 17 2.47403 17 4.78497V4.90118C17 6.0965 16.565 7.24532 15.7848 8.13849C15.6719 8.26466 15.5557 8.38751 15.4295 8.50372L9.32012 14.1914C9.29356 14.218 9.26367 14.2412 9.23379 14.2645C9.02461 14.4272 8.76562 14.5135 8.5 14.5135C8.19453 14.5135 7.90234 14.3973 7.67656 14.1914L1.56719 8.50704C1.44102 8.39083 1.3248 8.26798 1.21191 8.14181C0.434961 7.24532 0 6.0965 0 4.90118V4.78497C0 2.47403 1.65352 0.491808 3.92793 0.0767687C5.28594 -0.168934 6.67051 0.183019 7.73633 1.01974C7.95879 1.19571 8.16797 1.38829 8.35723 1.60411L8.49668 1.76017L8.63613 1.60411C8.77559 1.44806 8.92168 1.30196 9.07773 1.16915C9.1375 1.11935 9.19727 1.06954 9.25703 1.01974H9.26035Z" fill="#67748E"/>
</svg>
