<svg width="18" height="18" viewBox="0 0 18 18" fill="none" xmlns="http://www.w3.org/2000/svg">
<path d="M8.75684 4.26465C6.27246 4.26465 4.26855 6.26855 4.26855 8.75293C4.26855 11.2373 6.27246 13.2412 8.75684 13.2412C11.2412 13.2412 13.2451 11.2373 13.2451 8.75293C13.2451 6.26855 11.2412 4.26465 8.75684 4.26465ZM8.75684 11.6709C7.15137 11.6709 5.83887 10.3623 5.83887 8.75293C5.83887 7.14355 7.14746 5.83496 8.75684 5.83496C10.3662 5.83496 11.6748 7.14355 11.6748 8.75293C11.6748 10.3623 10.3623 11.6709 8.75684 11.6709ZM14.4756 4.08105C14.4756 4.66309 14.0068 5.12793 13.4287 5.12793C12.8467 5.12793 12.3818 4.65918 12.3818 4.08105C12.3818 3.50293 12.8506 3.03418 13.4287 3.03418C14.0068 3.03418 14.4756 3.50293 14.4756 4.08105ZM17.4482 5.14355C17.3818 3.74121 17.0615 2.49902 16.0342 1.47559C15.0107 0.452148 13.7686 0.131836 12.3662 0.0615234C10.9209 -0.0205078 6.58887 -0.0205078 5.14355 0.0615234C3.74512 0.12793 2.50293 0.448242 1.47559 1.47168C0.448242 2.49512 0.131836 3.7373 0.0615234 5.13965C-0.0205078 6.58496 -0.0205078 10.917 0.0615234 12.3623C0.12793 13.7646 0.448242 15.0068 1.47559 16.0303C2.50293 17.0537 3.74121 17.374 5.14355 17.4443C6.58887 17.5264 10.9209 17.5264 12.3662 17.4443C13.7686 17.3779 15.0107 17.0576 16.0342 16.0303C17.0576 15.0068 17.3779 13.7646 17.4482 12.3623C17.5303 10.917 17.5303 6.58887 17.4482 5.14355ZM15.5811 13.9131C15.2764 14.6787 14.6865 15.2686 13.917 15.5771C12.7646 16.0342 10.0303 15.9287 8.75684 15.9287C7.4834 15.9287 4.74512 16.0303 3.59668 15.5771C2.83105 15.2725 2.24121 14.6826 1.93262 13.9131C1.47559 12.7607 1.58105 10.0264 1.58105 8.75293C1.58105 7.47949 1.47949 4.74121 1.93262 3.59277C2.2373 2.82715 2.82715 2.2373 3.59668 1.92871C4.74902 1.47168 7.4834 1.57715 8.75684 1.57715C10.0303 1.57715 12.7686 1.47559 13.917 1.92871C14.6826 2.2334 15.2725 2.82324 15.5811 3.59277C16.0381 4.74512 15.9326 7.47949 15.9326 8.75293C15.9326 10.0264 16.0381 12.7646 15.5811 13.9131Z" fill="#333333"/>
</svg>
