<svg width="22" height="22" viewBox="0 0 22 22" fill="none" xmlns="http://www.w3.org/2000/svg">
<path d="M10.4844 5.61168L9.96875 5.0316L9.78828 4.82965C8.67109 3.57496 6.98242 2.99058 5.32812 3.29136C3.03789 3.70816 1.375 5.70191 1.375 8.03082V8.18121C1.375 9.5691 1.95078 10.8925 2.96914 11.8378L10.8711 19.1984C10.9055 19.2285 10.9527 19.25 11 19.25C11.0473 19.25 11.0945 19.2328 11.1289 19.1984L19.0352 11.8378C20.0492 10.8925 20.625 9.5691 20.625 8.18121V8.03082C20.625 5.70191 18.9621 3.70816 16.6719 3.29136C15.0176 2.99058 13.3289 3.57496 12.2117 4.82965L12.0312 5.0316L11.5156 5.61168C11.3867 5.75777 11.1977 5.84371 11 5.84371C10.8023 5.84371 10.6176 5.75777 10.4844 5.61168ZM11.984 3.15816C13.3633 2.07965 15.1551 1.61988 16.9168 1.93785C19.8602 2.47496 22 5.04019 22 8.03082V8.18121C22 9.72808 21.4371 11.2148 20.4273 12.3707C20.2812 12.5339 20.1309 12.6929 19.9676 12.8433L12.0613 20.2039C12.027 20.2382 11.9883 20.2683 11.9496 20.2984C11.6789 20.5089 11.3438 20.6207 11 20.6207C10.6047 20.6207 10.2266 20.4703 9.93437 20.2039L2.02813 12.8476C1.86484 12.6972 1.71445 12.5382 1.56836 12.375C0.562891 11.2148 0 9.72808 0 8.18121V8.03082C0 5.04019 2.13984 2.47496 5.0832 1.93785C6.84063 1.61988 8.63242 2.07535 10.0117 3.15816C10.2996 3.3859 10.5703 3.63511 10.8152 3.91441L10.9957 4.11636L11.1762 3.91441C11.3566 3.71246 11.5457 3.5234 11.7477 3.35152C11.825 3.28707 11.9023 3.22261 11.9797 3.15816H11.984Z" fill="#676767"/>
</svg>
