<svg preserveAspectRatio="none" width="100%" height="100%" overflow="visible" style="display: block;" viewBox="0 0 40 40" fill="none" xmlns="http://www.w3.org/2000/svg">
<g id="Image" clip-path="url(#clip0_0_6)">
<path id="Vector" d="M29.4885 13.9825V9.06371C29.4885 8.96249 29.4744 8.86383 29.45 8.7703C29.0746 3.83228 24.9643 6.24657e-07 19.9917 6.24657e-07C15.0191 6.24657e-07 10.91 3.831 10.532 8.76518C10.5064 8.85999 10.4936 8.95993 10.4936 9.06371V13.9825C7.69275 14.0338 5.42875 16.3234 5.42875 19.1371V34.8416C5.42875 37.686 7.74272 40 10.5884 40H29.3949C32.2406 40 34.5546 37.686 34.5546 34.8416V19.1371C34.5546 16.3247 32.2906 14.0338 29.4897 13.9825H29.4885ZM12.8396 9.12265C13.0369 5.31215 16.1773 2.32551 19.9904 2.32551C23.8035 2.32551 26.9438 5.31087 27.1399 9.12265C27.1424 9.17903 27.1501 9.23412 27.1604 9.28793V13.9761H12.8204V9.28665C12.8306 9.23284 12.8383 9.17903 12.8409 9.12265H12.8396ZM32.2278 34.8403C32.2278 36.4022 30.9568 37.6732 29.3949 37.6732H10.5884C9.02655 37.6732 7.75553 36.4022 7.75553 34.8403V19.1358C7.75553 17.5739 9.02655 16.3029 10.5884 16.3029H29.3949C30.9568 16.3029 32.2278 17.5739 32.2278 19.1358V34.8403Z" fill="var(--fill-0, #6C757D)"/>
<path id="Vector_2" d="M19.9904 22.7656C19.205 22.7656 18.5682 23.4024 18.5682 24.1878V29.8101C18.5682 30.5955 19.205 31.2323 19.9904 31.2323C20.7758 31.2323 21.4126 30.5955 21.4126 29.8101V24.1878C21.4126 23.4024 20.7758 22.7656 19.9904 22.7656Z" fill="var(--fill-0, #6C757D)"/>
</g>
<defs>
<clipPath id="clip0_0_6">
<rect width="40" height="40" fill="white"/>
</clipPath>
</defs>
</svg>
