<svg width="44" height="50" viewBox="0 0 44 50" fill="none" xmlns="http://www.w3.org/2000/svg">
<path d="M21.875 3.125C27.0508 3.125 31.25 7.32422 31.25 12.5V18.75H12.5V12.5C12.5 7.32422 16.6992 3.125 21.875 3.125ZM9.375 12.5V18.75H7.8125C3.49609 18.75 0 22.2461 0 26.5625V42.1875C0 46.5039 3.49609 50 7.8125 50H35.9375C40.2539 50 43.75 46.5039 43.75 42.1875V26.5625C43.75 22.2461 40.2539 18.75 35.9375 18.75H34.375V12.5C34.375 5.5957 28.7793 0 21.875 0C14.9707 0 9.375 5.5957 9.375 12.5ZM7.8125 21.875H35.9375C38.5254 21.875 40.625 23.9746 40.625 26.5625V42.1875C40.625 44.7754 38.5254 46.875 35.9375 46.875H7.8125C5.22461 46.875 3.125 44.7754 3.125 42.1875V26.5625C3.125 23.9746 5.22461 21.875 7.8125 21.875ZM23.4375 30.4688C23.4375 29.6094 22.7344 28.9062 21.875 28.9062C21.0156 28.9062 20.3125 29.6094 20.3125 30.4688V38.2812C20.3125 39.1406 21.0156 39.8438 21.875 39.8438C22.7344 39.8438 23.4375 39.1406 23.4375 38.2812V30.4688Z" fill="#67748E"/>
</svg>
