<svg width="5" height="20" viewBox="0 0 5 20" fill="none" xmlns="http://www.w3.org/2000/svg">
<path d="M2.4 13.8C1.92262 13.8 1.46478 13.9896 1.12721 14.3272C0.789648 14.6647 0.600006 15.1226 0.600006 15.6C0.600006 16.0774 0.789648 16.5352 1.12721 16.8728C1.46478 17.2103 1.92262 17.4 2.4 17.4C2.87739 17.4 3.33523 17.2103 3.6728 16.8728C4.01036 16.5352 4.2 16.0774 4.2 15.6C4.2 15.1226 4.01036 14.6647 3.6728 14.3272C3.33523 13.9896 2.87739 13.8 2.4 13.8ZM2.4 7.79998C1.92262 7.79998 1.46478 7.98962 1.12721 8.32719C0.789648 8.66475 0.600006 9.12259 0.600006 9.59998C0.600006 10.0774 0.789648 10.5352 1.12721 10.8728C1.46478 11.2103 1.92262 11.4 2.4 11.4C2.87739 11.4 3.33523 11.2103 3.6728 10.8728C4.01036 10.5352 4.2 10.0774 4.2 9.59998C4.2 9.12259 4.01036 8.66475 3.6728 8.32719C3.33523 7.98962 2.87739 7.79998 2.4 7.79998ZM4.2 3.59999C4.2 3.36361 4.15344 3.12954 4.06299 2.91116C3.97253 2.69277 3.83994 2.49434 3.6728 2.32719C3.50565 2.16005 3.30722 2.02746 3.08883 1.937C2.87045 1.84655 2.63638 1.79999 2.4 1.79999C2.16363 1.79999 1.92956 1.84655 1.71117 1.937C1.49279 2.02746 1.29436 2.16005 1.12721 2.32719C0.960068 2.49434 0.827481 2.69277 0.737023 2.91116C0.646564 3.12954 0.600006 3.36361 0.600006 3.59999C0.600006 3.83636 0.646564 4.07043 0.737023 4.28882C0.827481 4.5072 0.960068 4.70563 1.12721 4.87278C1.29436 5.03992 1.49279 5.17251 1.71117 5.26297C1.92956 5.35343 2.16363 5.39998 2.4 5.39998C2.63638 5.39998 2.87045 5.35343 3.08883 5.26297C3.30722 5.17251 3.50565 5.03992 3.6728 4.87278C3.83994 4.70563 3.97253 4.5072 4.06299 4.28882C4.15344 4.07043 4.2 3.83636 4.2 3.59999Z" fill="#1E293B"/>
</svg>
