<svg width="16" height="14" viewBox="0 0 16 14" fill="none" xmlns="http://www.w3.org/2000/svg">
<path d="M14.5722 4.85828V11.6583C14.5722 12.1948 14.1392 12.6305 13.6 12.6305H1.94172C1.40516 12.6305 0.969531 12.1975 0.969531 11.6583V4.85828H14.5695H14.5722ZM14.5722 3.88609H11.6158L14.2667 1.23516C14.4553 1.41047 14.5722 1.66281 14.5722 1.94172V3.88344V3.88609ZM7.00188 3.88609L9.91578 0.972187H13.1591L10.2452 3.88609H7.00188ZM5.62594 3.88609H2.38797L5.30188 0.972187H8.54516L5.63125 3.88609H5.62859H5.62594ZM1.94172 0.972187H3.92594L1.01203 3.88609H0.969531V1.94437C0.969531 1.40781 1.4025 0.972187 1.94172 0.972187ZM15.5417 3.88609V1.94437C15.5444 0.87125 14.6731 0 13.6 0H1.94172C0.87125 0 0 0.87125 0 1.94172V3.88344V4.36953V4.85563V11.6556C0 12.7261 0.87125 13.5973 1.94172 13.5973H13.6C14.6705 13.5973 15.5417 12.7261 15.5417 11.6556V4.85563V4.36953V3.88344V3.88609ZM6.56094 5.89422C6.41219 5.80656 6.22359 5.80656 6.07219 5.89156C5.92078 5.97656 5.82516 6.13859 5.82516 6.31391V11.1722C5.82516 11.3448 5.91813 11.5069 6.07219 11.5945C6.22625 11.6822 6.40953 11.6795 6.56094 11.5919L10.6888 9.16406C10.8375 9.07641 10.9278 8.91703 10.9278 8.74438C10.9278 8.57172 10.8375 8.41234 10.6888 8.32469L6.56094 5.89422ZM9.48281 8.74172L6.8 10.3195V7.16125L9.48281 8.73906V8.74172Z" fill="#333333"/>
</svg>
