<svg width="22" height="22" viewBox="0 0 22 22" fill="none" xmlns="http://www.w3.org/2000/svg">
<path d="M20.625 11C20.625 8.44729 19.6109 5.99913 17.8059 4.1941C16.0009 2.38906 13.5527 1.375 11 1.375C8.44729 1.375 5.99913 2.38906 4.1941 4.1941C2.38906 5.99913 1.375 8.44729 1.375 11C1.375 13.5527 2.38906 16.0009 4.1941 17.8059C5.99913 19.6109 8.44729 20.625 11 20.625C13.5527 20.625 16.0009 19.6109 17.8059 17.8059C19.6109 16.0009 20.625 13.5527 20.625 11ZM0 11C0 8.08262 1.15893 5.28473 3.22183 3.22183C5.28473 1.15893 8.08262 0 11 0C13.9174 0 16.7153 1.15893 18.7782 3.22183C20.8411 5.28473 22 8.08262 22 11C22 13.9174 20.8411 16.7153 18.7782 18.7782C16.7153 20.8411 13.9174 22 11 22C8.08262 22 5.28473 20.8411 3.22183 18.7782C1.15893 16.7153 0 13.9174 0 11ZM11.6875 5.15625V6.14453C12.2676 6.1875 12.8305 6.34219 13.3891 6.50117C13.4535 6.51836 13.5223 6.53984 13.5867 6.55703C13.952 6.66016 14.1668 7.03828 14.068 7.40352C13.9691 7.76875 13.5867 7.98359 13.2215 7.88477C13.1184 7.85469 13.0152 7.82461 12.9121 7.79453C12.5898 7.7 12.259 7.60547 11.9281 7.5582C11.1074 7.43789 10.3555 7.54102 9.80977 7.77734C9.25547 8.01797 9.01055 8.34023 8.95898 8.61523C8.88164 9.03633 9.04922 9.32422 9.39727 9.54766C9.85273 9.83984 10.5359 10.0332 11.3652 10.2695L11.3781 10.2738C12.1387 10.4887 13.0496 10.7508 13.7113 11.2062C14.5277 11.7648 14.9059 12.6586 14.7254 13.634C14.5535 14.5621 13.9133 15.1809 13.1012 15.5074C12.6758 15.6793 12.1945 15.7781 11.6789 15.8039V16.8438C11.6789 17.2219 11.3695 17.5312 10.9914 17.5312C10.6133 17.5312 10.3039 17.2219 10.3039 16.8438V15.7309C9.95586 15.675 9.36719 15.5074 8.91172 15.3699C8.61523 15.2797 8.31875 15.1852 8.02227 15.0906C7.66133 14.9703 7.46797 14.5836 7.58398 14.2227C7.7 13.8617 8.09102 13.6684 8.45195 13.7844C8.73555 13.8789 9.01914 13.9691 9.30703 14.0551C9.78828 14.2012 10.2824 14.3387 10.5145 14.373C11.3652 14.4977 12.0828 14.4289 12.577 14.227C13.0582 14.0336 13.2988 13.7414 13.3633 13.3805C13.4449 12.9293 13.2988 12.5898 12.925 12.332C12.4094 11.9797 11.7734 11.8035 11.1676 11.6359C11.0687 11.6102 10.9656 11.5801 10.8711 11.5543C10.1363 11.348 9.28125 11.1031 8.64961 10.6992C8.30156 10.4758 7.975 10.1793 7.76875 9.7668C7.5582 9.3457 7.50234 8.87305 7.59688 8.35742C7.76016 7.46797 8.45625 6.84922 9.25547 6.50547C9.57344 6.36797 9.92578 6.26484 10.2996 6.20039V5.15625C10.2996 4.77812 10.609 4.46875 10.9871 4.46875C11.3652 4.46875 11.6746 4.77812 11.6746 5.15625H11.6875Z" fill="#676767"/>
</svg>
