<svg width="17" height="15" viewBox="0 0 17 15" fill="none" xmlns="http://www.w3.org/2000/svg">
<path d="M2.125 1.0625C1.5373 1.0625 1.0625 1.5373 1.0625 2.125V9.87461L3.31035 7.62676C3.82832 7.10879 4.66836 7.10879 5.18965 7.62676L7.4375 9.87461L11.8104 5.50176C12.3283 4.98379 13.1684 4.98379 13.6896 5.50176L15.9375 7.74961V2.125C15.9375 1.5373 15.4627 1.0625 14.875 1.0625H2.125ZM1.0625 11.3754V12.75C1.0625 13.3377 1.5373 13.8125 2.125 13.8125H3.49961L6.68711 10.625L4.43926 8.37715C4.33633 8.27422 4.16699 8.27422 4.06406 8.37715L1.0625 11.3754ZM12.9393 6.25215C12.8363 6.14922 12.667 6.14922 12.5641 6.25215L5.00039 13.8125H14.875C15.4627 13.8125 15.9375 13.3377 15.9375 12.75V9.25039L12.9393 6.25215ZM0 2.125C0 0.95293 0.95293 0 2.125 0H14.875C16.0471 0 17 0.95293 17 2.125V12.75C17 13.9221 16.0471 14.875 14.875 14.875H2.125C0.95293 14.875 0 13.9221 0 12.75V2.125ZM5.3125 3.71875C5.3125 3.57785 5.25653 3.44273 5.1569 3.3431C5.05727 3.24347 4.92215 3.1875 4.78125 3.1875C4.64035 3.1875 4.50523 3.24347 4.4056 3.3431C4.30597 3.44273 4.25 3.57785 4.25 3.71875C4.25 3.85965 4.30597 3.99477 4.4056 4.0944C4.50523 4.19403 4.64035 4.25 4.78125 4.25C4.92215 4.25 5.05727 4.19403 5.1569 4.0944C5.25653 3.99477 5.3125 3.85965 5.3125 3.71875ZM3.1875 3.71875C3.1875 3.29606 3.35541 2.89068 3.6543 2.5918C3.95318 2.29291 4.35856 2.125 4.78125 2.125C5.20394 2.125 5.60932 2.29291 5.9082 2.5918C6.20709 2.89068 6.375 3.29606 6.375 3.71875C6.375 4.14144 6.20709 4.54682 5.9082 4.8457C5.60932 5.14459 5.20394 5.3125 4.78125 5.3125C4.35856 5.3125 3.95318 5.14459 3.6543 4.8457C3.35541 4.54682 3.1875 4.14144 3.1875 3.71875Z" fill="#67748E"/>
</svg>
