<svg width="17" height="14" viewBox="0 0 17 14" fill="none" xmlns="http://www.w3.org/2000/svg">
<path d="M3.25 1.75C2.76602 1.75 2.375 2.14102 2.375 2.625V9.00703L4.22617 7.15586C4.65273 6.7293 5.34453 6.7293 5.77383 7.15586L7.625 9.00703L11.2262 5.40586C11.6527 4.9793 12.3445 4.9793 12.7738 5.40586L14.625 7.25703V2.625C14.625 2.14102 14.234 1.75 13.75 1.75H3.25ZM2.375 10.243V11.375C2.375 11.859 2.76602 12.25 3.25 12.25H4.38203L7.00703 9.625L5.15586 7.77383C5.07109 7.68906 4.93164 7.68906 4.84687 7.77383L2.375 10.243ZM12.1559 6.02383C12.0711 5.93906 11.9316 5.93906 11.8469 6.02383L5.61797 12.25H13.75C14.234 12.25 14.625 11.859 14.625 11.375V8.49297L12.1559 6.02383ZM1.5 2.625C1.5 1.65977 2.28477 0.875 3.25 0.875H13.75C14.7152 0.875 15.5 1.65977 15.5 2.625V11.375C15.5 12.3402 14.7152 13.125 13.75 13.125H3.25C2.28477 13.125 1.5 12.3402 1.5 11.375V2.625ZM5.875 3.9375C5.875 3.82147 5.82891 3.71019 5.74686 3.62814C5.66481 3.54609 5.55353 3.5 5.4375 3.5C5.32147 3.5 5.21019 3.54609 5.12814 3.62814C5.04609 3.71019 5 3.82147 5 3.9375C5 4.05353 5.04609 4.16481 5.12814 4.24686C5.21019 4.32891 5.32147 4.375 5.4375 4.375C5.55353 4.375 5.66481 4.32891 5.74686 4.24686C5.82891 4.16481 5.875 4.05353 5.875 3.9375ZM4.125 3.9375C4.125 3.5894 4.26328 3.25556 4.50942 3.00942C4.75556 2.76328 5.0894 2.625 5.4375 2.625C5.7856 2.625 6.11944 2.76328 6.36558 3.00942C6.61172 3.25556 6.75 3.5894 6.75 3.9375C6.75 4.2856 6.61172 4.61944 6.36558 4.86558C6.11944 5.11172 5.7856 5.25 5.4375 5.25C5.0894 5.25 4.75556 5.11172 4.50942 4.86558C4.26328 4.61944 4.125 4.2856 4.125 3.9375Z" fill="#333333"/>
</svg>
