<svg width="13" height="20" viewBox="0 0 13 20" fill="none" xmlns="http://www.w3.org/2000/svg">
<path d="M2.75108 3.76172C2.2587 3.76172 1.86401 4.15625 1.86401 4.64844V15.2852C1.86401 15.7773 2.2587 16.1719 2.75108 16.1719H9.84374C10.3361 16.1719 10.7308 15.7773 10.7308 15.2852V4.64844C10.7308 4.15625 10.3361 3.76172 9.84374 3.76172H2.75108ZM0.976944 4.64844C0.976944 3.67188 1.77413 2.875 2.75108 2.875H9.84374C10.8207 2.875 11.6179 3.67188 11.6179 4.64844V15.2852C11.6179 16.2617 10.8207 17.0586 9.84374 17.0586H2.75108C1.77413 17.0586 0.976944 16.2617 0.976944 15.2852V4.64844ZM10.3908 0.414062C10.3908 0.183594 10.2072 0 9.98051 0H2.61431C2.39157 0 2.2079 0.1875 2.2079 0.414062C2.2079 0.640625 2.39157 0.828125 2.61822 0.828125H9.98442C10.2111 0.828125 10.3947 0.640625 10.3947 0.414062H10.3908ZM10.3908 19.582C10.3908 19.3555 10.2072 19.168 9.98051 19.168H2.61431C2.38766 19.168 2.20399 19.3555 2.20399 19.582C2.20399 19.8086 2.39157 20 2.61431 20H9.98051C10.2072 20 10.3908 19.8125 10.3908 19.5859V19.582Z" fill="#333333"/>
</svg>
