<svg width="14" height="16" viewBox="0 0 14 16" fill="none" xmlns="http://www.w3.org/2000/svg">
<path d="M13.9959 6.55969C12.6202 6.56298 11.2781 6.13392 10.1594 5.33313V10.9181C10.159 11.9525 9.84283 12.9622 9.25315 13.812C8.66347 14.6619 7.82839 15.3115 6.85956 15.6739C5.89074 16.0364 4.83435 16.0944 3.83165 15.8402C2.82895 15.5861 1.92774 15.0319 1.24852 14.2517C0.569305 13.4716 0.144451 12.5026 0.0307726 11.4745C-0.082906 10.4464 0.120009 9.40803 0.612385 8.49833C1.10476 7.58863 1.86313 6.85093 2.78608 6.38387C3.70904 5.91681 4.75259 5.74265 5.77719 5.88469V8.69375C5.30833 8.54627 4.80486 8.55071 4.33867 8.70644C3.87249 8.86217 3.46743 9.16123 3.18134 9.56089C2.89526 9.96056 2.74277 10.4404 2.74567 10.9319C2.74856 11.4234 2.90669 11.9014 3.19746 12.2977C3.48824 12.694 3.89679 12.9882 4.36478 13.1385C4.83276 13.2887 5.33625 13.2872 5.80335 13.1342C6.27044 12.9812 6.67724 12.6845 6.96567 12.2866C7.25409 11.8886 7.40939 11.4096 7.40938 10.9181V0H10.1594C10.1575 0.232231 10.1769 0.464146 10.2175 0.692813C10.3131 1.20328 10.5118 1.68888 10.8014 2.11992C11.0911 2.55096 11.4657 2.91837 11.9022 3.19969C12.5233 3.61034 13.2514 3.82922 13.9959 3.82906V6.55969Z" fill="#333333"/>
</svg>
